<svg width="512" height="512" viewBox="0 0 512 512" fill="none" xmlns="http://www.w3.org/2000/svg">
<path d="M95.317 188.783C69.3 188.783 48.2 209.833 48.2 235.9V304.2C48.2 312.484 54.916 319.2 63.2 319.2C71.484 319.2 78.1999 312.484 78.1999 304.2V287.066H112.467V304.2C112.467 312.484 119.183 319.2 127.467 319.2C135.751 319.2 142.467 312.484 142.467 304.2V235.917C142.467 209.928 121.322 188.783 95.317 188.783ZM78.1999 257.066V235.9C78.1999 226.457 85.833 218.783 95.333 218.783C104.78 218.783 112.467 226.47 112.467 235.917V257.066H78.1999V257.066Z" fill="white"/>
<path d="M239.934 192.8C231.65 192.8 224.934 199.516 224.934 207.8V276.083C224.934 285.53 217.247 293.217 207.785 293.217C198.35 293.217 190.668 285.586 190.668 276.1V207.8C190.668 199.516 183.952 192.8 175.668 192.8C167.384 192.8 160.668 199.516 160.668 207.8V276.1C160.668 302.127 181.722 323.217 207.801 323.217C233.79 323.217 254.935 302.072 254.935 276.083V207.8C254.934 199.516 248.218 192.8 239.934 192.8Z" fill="white"/>
<path d="M416.667 188.783H416.65C390.634 188.783 369.533 209.834 369.533 235.9V276.1C369.533 302.127 390.588 323.217 416.667 323.217C442.468 323.217 463.8 302.37 463.8 276.083V235.917C463.8 209.996 442.846 188.783 416.667 188.783ZM433.8 276.083C433.8 285.461 426.225 293.217 416.651 293.217C407.215 293.217 399.534 285.585 399.534 276.1V235.9C399.534 226.427 407.204 218.783 416.651 218.783H416.668C426.108 218.783 433.801 226.421 433.801 235.917V276.083H433.8Z" fill="white"/>
<path d="M344.366 192.8H280.1C271.816 192.8 265.1 199.516 265.1 207.8C265.1 216.084 271.816 222.8 280.1 222.8H297.234V304.2C297.234 312.484 303.95 319.2 312.234 319.2C320.518 319.2 327.234 312.484 327.234 304.2V222.8H344.367C352.651 222.8 359.367 216.084 359.367 207.8C359.367 199.516 352.65 192.8 344.366 192.8Z" fill="white"/>
</svg>
