<svg width="512" height="512" viewBox="0 0 512 512" fill="none" xmlns="http://www.w3.org/2000/svg">
<g clip-path="url(#clip0)">
<path d="M465.083 290.73L462.821 250.386L438.192 282.419C436.231 284.969 432.056 289.48 426.726 293.591C428.832 286.613 430.712 278.655 431.955 269.877C436.257 239.479 433.578 192.824 396.399 143.184L380.799 122.356L370.577 146.287C358.786 173.891 339.708 187.74 321.977 181.567C308.327 176.817 297.232 161.195 291.54 138.704C286.231 117.726 283.145 80.811 298.605 24.075L305.165 0L280.822 5.484C198.707 23.982 143.374 82.296 120.802 174.12C111.314 212.719 109.527 249.288 109.793 274.022C90.391 258.336 80.702 244.573 80.448 244.209L61.967 217.057L53.549 248.849C48.922 266.323 46.577 284.4 46.577 302.578C46.577 417.191 139.127 510.577 253.416 511.968C254.275 511.99 255.136 512.001 256 512.001C256.864 512.001 257.725 511.99 258.584 511.968C372.874 510.577 465.423 417.191 465.423 302.578C465.423 298.743 465.309 294.756 465.083 290.73ZM256.001 481.975C217.265 481.975 185.752 450.462 185.752 411.727C185.752 344.129 217.719 313.847 242.637 300.51C239.462 317.672 242.277 333.934 247.566 346.042C255.449 364.087 269.515 375.907 285.194 377.659C291.353 378.345 301.662 377.814 312.468 369.951C321.335 381.952 326.249 396.592 326.249 411.727C326.249 450.463 294.735 481.975 256.001 481.975ZM344.691 458.466C352.08 444.501 356.274 428.595 356.274 411.727C356.274 383.3 344.135 356.097 322.971 337.095L310.659 326.042L300.851 339.367C298.354 342.76 293.428 348.378 288.531 347.821C284.647 347.387 278.982 342.952 275.082 334.023C269.689 321.68 268.595 302.166 281.691 284.42L302.473 256.257L267.745 260.609C266.574 260.756 238.749 264.441 211.158 285.178C165.347 319.608 155.73 372.999 155.73 411.727C155.73 428.599 159.925 444.508 167.318 458.475C113.18 427.556 76.606 369.26 76.606 302.577C76.606 296.889 76.874 291.214 77.406 285.573C87.531 295.166 101.257 306.339 118.732 316.707L144.819 332.174L141.302 302.045C141.234 301.46 134.658 242.865 150.151 180.525C167.866 109.236 205.96 62.659 263.555 41.73C255.523 81.392 255.099 117.086 262.436 146.072C270.65 178.524 288.757 201.798 312.114 209.924C328.351 215.573 345.849 213.473 361.392 204.012C370.339 198.566 378.433 190.815 385.391 181.111C400.422 207.952 406.141 235.871 402.406 264.367C398.873 291.322 387.779 308.932 387.704 309.05L374.861 328.753L398.14 332.107C409.86 333.795 422.099 331.218 434.053 324.62C426.993 381.96 392.766 431.006 344.691 458.466Z" fill="white"/>
</g>
<defs>
<clipPath id="clip0">
<rect width="512" height="512" fill="white"/>
</clipPath>
</defs>
</svg>
