<svg width="512" height="512" viewBox="0 0 512 512" fill="none" xmlns="http://www.w3.org/2000/svg">
<path d="M256 362.668C197.184 362.668 149.332 314.816 149.332 256C149.332 197.184 197.184 149.332 256 149.332C314.816 149.332 362.668 197.184 362.668 256C362.668 314.816 314.816 362.668 256 362.668V362.668ZM256 181.332C214.828 181.332 181.332 214.828 181.332 256C181.332 297.172 214.828 330.668 256 330.668C297.172 330.668 330.668 297.172 330.668 256C330.668 214.828 297.172 181.332 256 181.332V181.332Z" fill="white"/>
<path d="M256 469.332C138.367 469.332 42.668 373.633 42.668 256C42.668 138.367 138.367 42.668 256 42.668C373.633 42.668 469.332 138.367 469.332 256C469.332 373.633 373.633 469.332 256 469.332ZM256 74.668C156.012 74.668 74.668 156.012 74.668 256C74.668 355.988 156.012 437.332 256 437.332C355.988 437.332 437.332 355.988 437.332 256C437.332 156.012 355.988 74.668 256 74.668Z" fill="white"/>
<path d="M256 106.668C247.168 106.668 240 99.5 240 90.668V16C240 7.16797 247.168 0 256 0C264.832 0 272 7.16797 272 16V90.668C272 99.5 264.832 106.668 256 106.668Z" fill="white"/>
<path d="M256 512C247.168 512 240 504.832 240 496V421.332C240 412.5 247.168 405.332 256 405.332C264.832 405.332 272 412.5 272 421.332V496C272 504.832 264.832 512 256 512Z" fill="white"/>
<path d="M90.668 272H16C7.16797 272 0 264.832 0 256C0 247.168 7.16797 240 16 240H90.668C99.5 240 106.668 247.168 106.668 256C106.668 264.832 99.5 272 90.668 272Z" fill="white"/>
<path d="M496 272H421.332C412.5 272 405.332 264.832 405.332 256C405.332 247.168 412.5 240 421.332 240H496C504.832 240 512 247.168 512 256C512 264.832 504.832 272 496 272Z" fill="white"/>
</svg>
