<svg width="34" height="34" viewBox="0 0 34 34" fill="none" xmlns="http://www.w3.org/2000/svg">
<path d="M17 0C7.65669 0 0 7.7231 0 17.0664C0 26.3555 7.58691 34 17 34C26.4014 34 34 26.3669 34 17.0664C34 7.7231 26.3433 0 17 0ZM19.9883 31.709C19.0321 31.9082 18.0161 32.0078 17 32.0078C15.9839 32.0078 14.9679 31.9082 14.0117 31.709V27.0473C14.0117 25.9316 14.3105 25.5332 14.709 24.9952C14.9118 24.7633 15.0343 24.5553 15.944 23.1825L14.4102 22.9434C10.4655 22.3657 8.91167 20.3136 8.29404 18.7198C7.49716 16.5883 7.91557 13.9186 9.35005 12.2255C9.56924 11.9664 9.74849 11.528 9.58922 11.0699C9.29013 10.1534 9.33008 8.69922 9.5293 8.14125C10.5856 8.29222 11.6717 9.04889 12.5775 9.5957C12.9949 9.83928 13.2138 9.77495 13.4141 9.79492C14.1419 9.64343 15.2773 9.2769 17.02 9.2769C18.0957 9.2769 19.2314 9.43617 20.347 9.75497C20.5465 9.75031 20.8671 9.91995 21.4228 9.5957C22.3696 9.0188 23.4188 8.28807 24.4707 8.14125C24.6699 8.69922 24.7099 10.1534 24.411 11.0699C24.2515 11.528 24.4308 11.9664 24.6502 12.2255C26.0844 13.9189 26.5028 16.5883 25.706 18.7198C25.0883 20.3136 23.5345 22.3657 19.5898 22.9434L18.056 23.1825C18.9963 24.6014 19.0954 24.7716 19.2913 24.9952C19.6895 25.5332 19.9883 25.9316 19.9883 27.0473V31.709ZM21.9805 31.1313V27.0473C21.9805 25.9117 21.7413 25.1547 21.4225 24.5968C24.4507 23.7802 26.6024 21.987 27.5586 19.4171C28.5747 16.7079 28.1166 13.4805 26.4229 11.2491C26.722 9.91451 26.722 7.78276 26.0048 6.78667C25.686 6.34854 25.2476 6.10938 24.6899 6.10938C24.6699 6.10938 24.6699 6.10938 24.6699 6.10938C23.1252 6.1929 21.9094 6.97084 20.6059 7.76279C19.4106 7.44398 18.1953 7.28471 16.98 7.28471C15.745 7.28471 14.5098 7.46396 13.4143 7.76279C12.0421 6.9353 10.838 6.19083 9.25044 6.10938C8.7524 6.10938 8.31401 6.34854 7.99521 6.78667C7.27823 7.78276 7.27823 9.91451 7.57706 11.2491C5.88344 13.4805 5.42534 16.7276 6.44141 19.4171C7.39755 21.987 9.54927 23.7802 12.5775 24.5968C12.3303 25.0292 12.1347 25.5872 12.0577 26.3423C11.446 26.5532 10.9155 26.6219 10.4221 26.4769C9.90179 26.3231 9.49635 25.9757 9.14409 25.3833C8.35292 24.0541 7.00534 22.969 5.47099 23.1102L5.64609 25.0946C6.35658 25.0294 7.06371 25.7812 7.43102 26.4009C8.03697 27.4214 8.8533 28.0906 9.85796 28.3874C10.6037 28.6071 11.2854 28.6019 12.0195 28.4452V31.1313C6.22221 29.0992 1.99219 23.561 1.99219 17.0664C1.99219 8.8188 8.7524 1.99219 17 1.99219C25.2476 1.99219 32.0078 8.8188 32.0078 17.0664C32.0078 23.561 27.7778 29.0992 21.9805 31.1313Z" fill="white"/>
</svg>
