<svg width="492" height="492" viewBox="0 0 492 492" fill="none" xmlns="http://www.w3.org/2000/svg">
<g clip-path="url(#clip0)">
<path d="M303.836 82.6362L33.1307 353.361C31.7688 354.727 30.7854 356.452 30.3171 358.305L0.312046 478.739C-0.585493 482.365 0.479847 486.22 3.12563 488.866C5.12753 490.868 7.85527 491.976 10.6454 491.976C11.5001 491.976 12.3742 491.871 13.2249 491.656L133.659 461.647C135.536 461.179 137.241 460.199 138.603 458.838L409.332 188.132L303.836 82.6362Z" fill="white"/>
<path d="M476.398 45.724L446.264 15.5901C426.124 -4.54988 391.022 -4.53037 370.906 15.5901L333.994 52.5023L439.486 157.994L476.398 121.082C486.458 111.026 491.999 97.6407 491.999 83.405C491.999 69.1692 486.458 55.7842 476.398 45.724Z" fill="white"/>
</g>
<defs>
<clipPath id="clip0">
<rect width="492" height="492" fill="white"/>
</clipPath>
</defs>
</svg>