<svg width="512" height="512" viewBox="0 0 512 512" fill="none" xmlns="http://www.w3.org/2000/svg">
<g clip-path="url(#clip0)">
<path d="M240.941 240.941H271.059V406.588H240.941V240.941Z" fill="white"/>
<path d="M180.706 240.941H210.824V406.588H180.706V240.941Z" fill="white"/>
<path d="M301.177 240.941H331.294V406.588H301.177V240.941Z" fill="white"/>
<path d="M451.765 60.2353H331.294V45.1765C331.294 20.2662 311.029 0 286.118 0H225.882C200.971 0 180.706 20.2662 180.706 45.1765V60.2353H60.2353V150.588H91.6058L119.298 469.075C120.494 493.177 140.243 512 164.418 512H347.581C371.756 512 391.505 493.177 392.701 469.075L420.394 150.588H451.765V60.2353ZM210.824 45.1765C210.824 36.873 217.579 30.1176 225.882 30.1176H286.118C294.422 30.1176 301.176 36.873 301.176 45.1765V60.2353H210.824V45.1765ZM90.3529 90.3529H421.647V120.471H90.3529V90.3529ZM362.628 467.45C362.29 475.543 355.681 481.882 347.582 481.882H164.418C156.319 481.882 149.71 475.544 149.372 467.45C119.909 128.419 121.924 151.6 121.836 150.588H390.164C390.084 151.497 391.959 129.939 362.628 467.45Z" fill="white"/>
</g>
<defs>
<clipPath id="clip0">
<rect width="512" height="512" fill="white"/>
</clipPath>
</defs>
</svg>
