<svg width="34" height="34" viewBox="0 0 34 34" fill="none" xmlns="http://www.w3.org/2000/svg">
<g clip-path="url(#clip0)">
<path d="M12.937 31.0589C7.26239 31.0589 2.77737 30.0675 0.631623 28.3394L0.589859 28.3056L0.551987 28.2678C0.0422675 27.7578 -0.124786 27.0888 0.0941473 26.4325L0.114121 26.378C0.379746 25.7137 1.03058 25.2665 1.73589 25.2624C3.18748 25.2372 4.4575 25.0642 5.61002 24.7283C3.77165 23.8733 2.49463 22.3929 1.73485 20.2502C1.47934 19.582 1.69983 18.8412 2.28867 18.3994C2.43393 18.2902 2.59813 18.2077 2.77193 18.1525C1.75041 16.9733 0.995819 15.6314 0.573258 14.2122L0.560029 14.1681L0.55095 14.123C0.407502 13.4052 0.728379 12.6672 1.31644 12.3495C1.56313 12.2078 1.83109 12.1344 2.10008 12.1282C1.81007 11.5036 1.59918 10.8623 1.47415 10.2172C1.12708 8.42942 1.41345 6.63723 2.32498 4.89043L2.53587 4.46865C2.70474 4.13117 3.02744 3.89408 3.39941 3.83364C3.77139 3.77346 4.15271 3.89642 4.41911 4.16282L4.80328 4.54751C7.83826 7.7293 10.5568 9.239 15.2568 10.2719C15.4667 8.46781 16.2467 6.79079 17.505 5.47097C19.0025 3.90057 21.0023 3.01939 23.1358 2.9893H23.1498C24.7065 2.9893 26.6374 3.878 27.8053 4.50471C28.8071 4.17683 30.014 3.66918 31.2664 3.13249C31.8524 2.85752 32.5748 2.98333 33.0355 3.44402C33.4871 3.89564 33.6124 4.53246 33.3728 5.15139C33.2817 5.40482 33.1785 5.65359 33.0635 5.8969C33.235 5.9755 33.3919 6.08211 33.5245 6.21467C33.9253 6.61544 34.0923 7.24267 33.9499 7.81283L33.9346 7.86704C33.4547 9.41358 32.5328 10.6732 31.3136 11.4639C31.11 22.307 22.9446 31.0589 12.937 31.0589V31.0589ZM2.54366 27.2289C4.56567 28.3728 8.41905 29.0649 12.937 29.0649C17.2807 29.0649 21.3797 27.2001 24.4787 23.8139C27.6032 20.3999 29.3238 15.8664 29.3238 11.0483V10.9941C29.3238 10.5578 29.564 10.1596 29.9505 9.95469C30.7347 9.53939 31.3697 8.83201 31.7826 7.92748C31.3567 7.99467 30.9238 7.82372 30.6584 7.46731C30.35 7.05305 30.3466 6.49352 30.6498 6.07563C30.8135 5.84995 30.9619 5.6152 31.0942 5.3724C30.0128 5.82661 28.9858 6.23386 28.0942 6.50442C27.7702 6.60247 27.4092 6.56408 27.1132 6.39884C25.5259 5.51455 24.0476 4.98589 23.1563 4.9833C19.8674 5.03362 17.1932 7.85044 17.1932 11.2657C17.1932 11.6187 17.0366 11.9497 16.7639 12.1741C16.491 12.3982 16.1362 12.488 15.7896 12.4195C10.3703 11.3518 7.15889 9.7508 3.81938 6.39495C3.34079 7.54176 3.21005 8.69686 3.43132 9.83744C3.6557 10.9928 4.25258 12.1505 5.15762 13.1852C5.50159 13.578 5.54724 14.1398 5.27124 14.5832C4.99628 15.0249 4.47359 15.2314 3.97113 15.0968C3.5784 14.9914 3.21732 14.8532 2.87491 14.6755C3.57243 16.1906 4.77216 17.5919 6.2803 18.6254C6.71739 18.925 6.90001 19.4835 6.72465 19.9836C6.54904 20.4845 6.05852 20.8069 5.5283 20.7675C4.95062 20.7247 4.43883 20.615 3.96776 20.43C4.8134 22.1522 6.16461 23.0997 8.24629 23.4619C8.742 23.5482 9.12799 23.9397 9.20685 24.4359C9.28596 24.9321 9.04031 25.424 8.59596 25.6598C6.82167 26.6003 4.8824 27.1051 2.54366 27.2289V27.2289Z" fill="white"/>
</g>
<defs>
<clipPath id="clip0">
<rect width="34" height="34" fill="white"/>
</clipPath>
</defs>
</svg>
